<?xml version="1.0" encoding="UTF-8"?>
<svg xmlns="http://www.w3.org/2000/svg" id="Layer_1" data-name="Layer 1" viewBox="0 0 24 24">
  <path d="m19,5c0,.552-.448,1-1,1s-1-.448-1-1,.448-1,1-1,1,.448,1,1Zm5,3l-2,.857v2.143c0,4.653-2.909,8.631-7,10.236v2.264c0,.276-.224.5-.5.5s-.5-.224-.5-.5v-1.926c-.955.271-1.959.426-3,.426v1.5c0,.276-.224.5-.5.5s-.5-.224-.5-.5v-1.551C4.402,21.442,0,16.728,0,11v-4.5c0-.276.224-.5.5-.5s.5.224.5.5c0,2.481,2.019,4.5,4.5,4.5s4.5-2.019,4.5-4.5v-.5c0-3.309,2.691-6,6-6s6,2.691,6,6v.143l2,.857v1ZM1,11c0,2.252.758,4.326,2.019,6h1.981c2.757,0,5-2.243,5-5v-2.348c-.996,1.417-2.64,2.348-4.5,2.348s-3.504-.93-4.5-2.348v1.348Zm20-5c0-2.757-2.243-5-5-5s-5,2.243-5,5v6c0,3.309-2.691,6-6,6h-1.129c1.816,1.849,4.339,3,7.129,3,5.514,0,10-4.486,10-10v-5Z"/>
</svg>
