<?xml version="1.0" encoding="UTF-8"?>
<svg xmlns="http://www.w3.org/2000/svg" id="Layer_1" data-name="Layer 1" viewBox="0 0 24 24">
  <path d="m23.818,2.441c-.189-.276-.502-.441-.837-.441h-1.45c.29-.419.469-.935.469-1.5,0-.276-.224-.5-.5-.5s-.5.224-.5.5c0,.827-.577,1.5-1.286,1.5h-6.428c-.709,0-1.286-.673-1.286-1.5,0-.276-.224-.5-.5-.5s-.5.224-.5.5c0,.565.179,1.081.469,1.5h-1.45c-.335,0-.647.165-.837.441-.193.282-.234.641-.111.961.364.941,1.363,1.598,2.43,1.598h.084l.368,2h-5.452c-1.093,0-2.082.407-2.862,1.057-.038.019-3.471,3.071-3.471,3.071-.206.184-.224.5-.04.706.099.11.236.167.373.167.119,0,.238-.042.333-.127l1.242-1.11c-.04.241-.075.485-.075.738v10c0,1.378,1.121,2.5,2.5,2.5,1.029,0,1.914-.626,2.297-1.516,2.809-.077,4.475-1.222,5.081-3.484h1.622c.275,0,.5.224.5.5v2c0,1.378,1.121,2.5,2.5,2.5s2.5-1.122,2.5-2.5v-5c0-.276-.224-.5-.5-.5s-.5.224-.5.5v5c0,.827-.673,1.5-1.5,1.5s-1.5-.673-1.5-1.5v-2c0-.827-.673-1.5-1.5-1.5h-6c-.827,0-1.5.673-1.5,1.5v2c0,.827-.673,1.5-1.5,1.5s-1.5-.673-1.5-1.5v-10c0-.09.02-.174.027-.263.729.482,1.582.763,2.473.763,2.31,0,4.197-1.756,4.449-4h2.186l.472,2.568c-.374.364-.608.87-.608,1.432,0,1.103.897,2,2,2h5c1.103,0,2-.897,2-2,0-.562-.234-1.068-.608-1.432l1.024-5.568h.084c1.066,0,2.065-.657,2.429-1.597.124-.32.083-.68-.11-.961ZM7.5,19h3.345c-.521,1.591-1.742,2.37-3.845,2.476v-1.976c0-.276.225-.5.5-.5Zm-2-8c-.826,0-1.609-.305-2.235-.828.524-1.273,1.775-2.172,3.235-2.172h2.449c-.245,1.692-1.691,3-3.449,3Zm13.5,2h-5c-.552,0-1-.449-1-1s.448-1,1-1h5c.552,0,1,.449,1,1s-.448,1-1,1Zm2.5-9h-.5c-.241,0-.448.172-.492.41l-1.04,5.651c-.151-.036-.306-.061-.468-.061h-5c-.162,0-.317.024-.468.061l-1.04-5.651c-.044-.237-.251-.41-.492-.41h-.5c-.642,0-1.285-.412-1.481-1l12.978.042c-.211.546-.854.958-1.496.958Zm-8,2c0-.552.448-1,1-1s1,.448,1,1-.448,1-1,1-1-.448-1-1Zm4,0c0-.552.448-1,1-1s1,.448,1,1-.448,1-1,1-1-.448-1-1Z"/>
</svg>
