<?xml version="1.0" encoding="UTF-8"?>
<svg xmlns="http://www.w3.org/2000/svg" id="Layer_1" data-name="Layer 1" viewBox="0 0 24 24">
  <path d="m24,7.5s-.002-3.863-.017-4.01c-.086-.848-.497-1.61-1.156-2.148-.758-.618-2.086-1.054-3.065-1.31-.365-.097-.752.032-.988.328-.238.298-.275.692-.099,1.028.067.129.145.266.226.408.111.195.229.404.337.623-.371-.053-.711-.124-1.027-.214-.364-.105-.743.011-.987.303-.242.29-.291.696-.124,1.034l.221.462c.383.815.818,1.74,1.477,2.278.591.481,1.303.716,2.012.716.8,0,1.584-.317,2.191-.896v1.397c0,1.852-1.451,3.358-3.274,3.477-.695-2.39-2.657-3.369-4.772-3.748.018-.076.046-.148.046-.229,0-.552-.448-1-1-1s-1,.448-1,1c0,.008.005.015.005.023-.341-.015-.679-.023-1.005-.023s-.663.009-1.005.023c0-.008.005-.015.005-.023,0-.552-.448-1-1-1s-1,.448-1,1c0,.081.028.153.046.229-2.115.379-4.077,1.358-4.772,3.748-1.823-.119-3.274-1.625-3.274-3.477v-1.397c.607.58,1.391.896,2.191.896.708,0,1.421-.234,2.012-.716.659-.538,1.093-1.463,1.477-2.278l.221-.462c.167-.338.119-.744-.124-1.034-.244-.292-.625-.408-.987-.303-.316.09-.656.161-1.027.214.107-.219.226-.428.337-.623.081-.143.158-.279.226-.407.176-.337.139-.731-.099-1.029-.235-.295-.623-.425-.987-.328-.98.256-2.308.691-3.065,1.31C.513,1.88.103,2.643.017,3.489c-.015.147-.017,4.011-.017,4.011,0,2.334,1.792,4.235,4.068,4.456-.042.328-.068.672-.068,1.044,0,.32.047.657.112,1h-.369c-.935,0-1.813.364-2.475,1.025l-1.121,1.121c-.195.195-.195.512,0,.707.098.098.226.146.354.146s.256-.049.354-.146l1.121-1.121c.473-.473,1.101-.732,1.768-.732h.627c.333,1.03.847,2.075,1.379,3h-.506c-.935,0-1.813.364-2.475,1.025l-1.121,1.121c-.195.195-.195.512,0,.707.098.098.226.146.354.146s.256-.049.354-.146l1.121-1.121c.473-.473,1.101-.732,1.768-.732h1.118c.328.487.737.896,1.204,1.215l-2.448,2.963c-.178.211-.151.526.06.705.094.078.208.117.322.117.143,0,.284-.061.383-.178l2.625-3.115c.5.188,1.035.292,1.588.292h3.801c.556,0,1.093-.105,1.594-.295l2.627,3.117c.099.117.24.178.383.178.114,0,.228-.039.322-.117.211-.179.238-.494.06-.705l-2.449-2.967c.465-.318.871-.726,1.197-1.211h1.127c.667,0,1.295.26,1.768.732l1.121,1.121c.098.098.226.146.354.146s.256-.049.354-.146c.195-.195.195-.512,0-.707l-1.121-1.121c-.662-.661-1.541-1.025-2.475-1.025h-.515c.532-.927,1.048-1.974,1.383-3h.632c.667,0,1.295.26,1.768.732l1.121,1.121c.098.098.226.146.354.146s.256-.049.354-.146c.195-.195.195-.512,0-.707l-1.121-1.121c-.662-.661-1.541-1.025-2.475-1.025h-.371c.066-.343.114-.681.114-1,0-.372-.026-.716-.068-1.044,2.276-.221,4.068-2.123,4.068-4.456Zm-1.493-2.306c-.762.936-2.143,1.075-3.078.313-.483-.394-.866-1.209-1.205-1.928-.068-.146-.135-.288-.205-.389.576.157,1.213.258,1.946.308.163.016.318-.058.421-.183.103-.126.138-.293.095-.449-.167-.604-.469-1.137-.712-1.563-.075-.133-.147-.259-.262-.305,1.25.327,2.204.724,2.687,1.118.453.369.735.893.794,1.474s-.112,1.151-.481,1.604ZM1.011,3.591c.059-.581.341-1.104.794-1.474.482-.395,1.437-.791,2.634-1.191-.062.119-.134.245-.209.378-.243.427-.545.959-.712,1.563-.043.156-.008.323.095.449.102.125.255.197.421.183.722-.049,1.353-.148,1.922-.302-.059.123-.12.251-.181.383-.338.719-.721,1.534-1.204,1.928-.935.762-2.317.622-3.079-.313-.369-.452-.54-1.022-.481-1.604Zm13.839,4.64l-.759,1.708c-.294.662-.481,1.358-.57,2.066-.007,0-.013-.004-.021-.004h-3c-.007,0-.013.004-.02.004-.089-.705-.275-1.399-.568-2.059l-.762-1.714c.819-.153,1.762-.231,2.85-.231s2.031.078,2.85.231Zm-7.725,10.123c-.969-1.539-2.125-3.717-2.125-5.354,0-2.394.978-3.849,3.161-4.532l.837,1.883c.625,1.405.716,2.987.257,4.455l-1.374,4.396c-.29-.238-.549-.52-.757-.849Zm2.97,1.646c-.466,0-.917-.093-1.333-.264l1.447-4.63c.215-.688.32-1.397.328-2.105h2.926c.008.711.113,1.423.329,2.113l1.443,4.619c-.418.173-.871.268-1.34.268h-3.801Zm4.652-5.186c-.46-1.473-.369-3.06.258-4.47l.834-1.876c2.182.683,3.161,2.138,3.161,4.532,0,1.611-1.158,3.797-2.129,5.347-.207.33-.465.612-.754.851l-1.37-4.383Z"/>
</svg>
