<?xml version="1.0" encoding="UTF-8"?>
<svg xmlns="http://www.w3.org/2000/svg" id="Layer_1" data-name="Layer 1" viewBox="0 0 24 24">
  <path d="m17,9c0,.552-.448,1-1,1s-1-.448-1-1,.448-1,1-1,1,.448,1,1Zm7,8.5v2.899c0,1.279-.902,2.383-2.099,2.569-.132.021-.264.03-.395.03-.593,0-1.165-.207-1.615-.593-.555-.476-.873-1.171-.872-1.908v-2.499h-2.495c-.275,0-.5.224-.5.5v2.002c0,1.377-1.121,2.498-2.498,2.498-.668,0-1.296-.26-1.768-.733-.473-.473-.731-1.102-.73-1.77l.004-1.996c0-.134-.052-.259-.146-.354-.094-.095-.22-.147-.354-.147h-5.024c-.275,0-.499.224-.5.499l-.004,2.008c-.002,1.375-1.123,2.493-2.498,2.493-1.385,0-2.506-1.121-2.506-2.498v-12.002C0,5.467,2.468,3,5.5,3h2.766c1.01-1.221,2.535-2,4.239-2,2.352,0,4.463,1.545,5.201,3.783,1.434.907,2.314,2.487,2.313,4.169v11.547c0,.445.19.863.522,1.148.332.284.757.403,1.205.333.715-.111,1.253-.791,1.253-1.581v-2.899c0-.276.224-.5.5-.5s.5.224.5.5Zm-4.98-.5v-7.998c0-1.464-.741-2.738-1.985-3.458-.111-.064-.193-.169-.229-.293-.556-1.915-2.324-3.251-4.3-3.251-2.481,0-4.5,2.019-4.5,4.5s2.019,4.5,4.5,4.5c.276,0,.5.224.5.5s-.224.5-.5.5c-3.032,0-5.5-2.467-5.5-5.5,0-.901.222-1.749.607-2.5h-2.112c-2.481,0-4.5,2.019-4.5,4.5v12.002c0,.826.672,1.498,1.498,1.498.832,0,1.505-.671,1.506-1.495l.004-2.008c0-.826.675-1.497,1.5-1.497h5.024c.401,0,.778.156,1.062.44.283.284.439.661.438,1.062l-.004,1.996c0,.401.155.778.438,1.062.283.283.66.439,1.061.439.826,0,1.498-.672,1.498-1.498v-2.002c0-.827.673-1.5,1.5-1.5h2.495Z"/>
</svg>
