<?xml version="1.0" encoding="UTF-8"?>
<svg xmlns="http://www.w3.org/2000/svg" id="Layer_1" data-name="Layer 1" viewBox="0 0 24 24">
  <path d="m23.995,5.856c-.065-.772-.472-1.457-1.115-1.878-1.16-.761-2.842-1.249-3.927-1.506-.25-1.403-1.478-2.472-2.953-2.472-1.349,0-2.492.895-2.869,2.122C5.411,5.776.26,12.523-.006,19.353c-.048,1.217.394,2.374,1.244,3.257.849.883,2.038,1.39,3.262,1.39h10c.276,0,.5-.224.5-.5s-.224-.5-.5-.5h-2.5v-3.5c.044-2.164.887-5.02,1.446-6.518l5.151,9.938c.345.666,1.025,1.08,1.775,1.08h1.269c.276,0,.5-.224.5-.5s-.224-.5-.5-.5h-1.269c-.375,0-.715-.207-.888-.54l-5.358-10.338c.181-.106.387-.178.606-.206,2.923-.378,6.31-1.954,8.429-3.922.597-.554.9-1.334.833-2.139Zm-7.995-4.856c1.103,0,2,.897,2,2s-.897,2-2,2-2-.897-2-2,.897-2,2-2Zm6.481,6.262c-1.948,1.809-5.187,3.314-7.876,3.662-.941.122-1.729.734-2.054,1.598-.402,1.066-.989,2.787-1.326,4.532-1.031-1.822-2.987-3.054-5.225-3.054h-1.5c-.276,0-.5.224-.5.5s.224.5.5.5h1.5c2.546,0,4.654,1.913,4.961,4.378,0,.041.009.235.027.286.007.111.012,3.336.012,3.336h-6.5c-.967,0-1.87-.384-2.541-1.083-.66-.686-1.002-1.583-.966-2.525.246-6.302,4.937-12.553,12.021-16.102.146,1.519,1.429,2.71,2.986,2.71,1.483,0,2.717-1.082,2.957-2.498.939.235,2.403.674,3.374,1.311.384.252.627.663.667,1.126.042.497-.146.979-.517,1.322Zm-7.481-4.262c0-.551.449-1,1-1s1,.449,1,1-.448,1-1,1-1-.449-1-1Z"/>
</svg>
