<?xml version="1.0" encoding="UTF-8"?>
<svg xmlns="http://www.w3.org/2000/svg" id="Layer_1" data-name="Layer 1" viewBox="0 0 24 24">
  <path d="m15,6c0,.552-.448,1-1,1s-1-.448-1-1,.448-1,1-1,1,.448,1,1Zm4-1c-.552,0-1,.448-1,1s.448,1,1,1,1-.448,1-1-.448-1-1-1Zm5,1c0,.828-.672,1.5-1.5,1.5-.294,0-.565-.088-.797-.233-.332.975-.926,1.829-1.703,2.472v13.261h1.5c.276,0,.5.224.5.5s-.224.5-.5.5H7.5c-4.136,0-7.5-3.364-7.5-7.5V5.5C0,2.21,2.21,0,5.5,0c.276,0,.5.224.5.5s-.224.5-.5.5C2.724,1,1,2.724,1,5.5v11c0,2.316,1.222,4.348,3.05,5.499.216-2.635,1.478-10.84,8.546-12.63-.581-.586-1.028-1.304-1.3-2.102-.231.146-.503.233-.797.233-.828,0-1.5-.672-1.5-1.5s.672-1.5,1.5-1.5c.205,0,.4.042.578.116.425-2.613,2.692-4.616,5.422-4.616s4.997,2.003,5.422,4.616c.178-.074.373-.116.578-.116.828,0,1.5.672,1.5,1.5Zm-11.531-2.461c.506-.34,1.116-.539,1.781-.539.839,0,1.647.33,2.25.91.602-.581,1.411-.91,2.25-.91.664,0,1.274.198,1.78.537-.732-1.496-2.255-2.537-4.03-2.537s-3.299,1.042-4.031,2.539Zm6.531,19.461v-6c0-1.103-.897-2-2-2s-2,.897-2,2v6h4Zm0-12.607c-.751.385-1.599.607-2.5.607-1.071,0-2.069-.313-2.915-.845,0,0,0,0,0,0-7.387,1.254-8.424,9.743-8.566,12.35.765.318,1.603.495,2.482.495h6.5v-6c0-1.654,1.346-3,3-3,.771,0,1.468.301,2,.78v-4.388Zm1.937-4.265c-.061-1.201-.995-2.128-2.187-2.128-.629,0-1.233.268-1.658.736-.309.337-.877.335-1.182.001-.427-.469-1.031-.737-1.66-.737-1.196,0-2.133.936-2.185,2.148.317,2.173,2.175,3.852,4.435,3.852s4.128-1.69,4.437-3.872Z"/>
</svg>
