<?xml version="1.0" encoding="UTF-8"?>
<svg xmlns="http://www.w3.org/2000/svg" id="Layer_1" data-name="Layer 1" viewBox="0 0 24 24">
  <path d="m15.508,8h-1.008c-2.949,0-6.206,1.77-8.49,3.319.027-1.362.144-2.513.389-3.983l.424-1.478c2.12-.536,3.813-2.318,4.171-4.432.062-.364-.051-.729-.308-1.002-.26-.276-.636-.417-1.01-.376-2.276.243-3.573,1.372-4.189,2.105C4.877,1.409,3.591.255,1.333.007.961-.037.583.105.322.381.063.656-.05,1.023.012,1.391c.3,1.756,1.479,3.3,3.073,4.082l-.228.346C.988,8.662,0,11.987,0,15.432c0,4.717,3.838,8.555,8.555,8.555h9.945c3.032,0,5.5-2.467,5.5-5.5v-1.988c0-4.683-3.81-8.495-8.492-8.499Zm7.492,10.487c0,2.481-2.019,4.5-4.5,4.5h-9.945c-4.166,0-7.555-3.389-7.555-7.555,0-3.25.932-6.384,2.693-9.064l.558-.848c.084-.129.104-.289.056-.435-.049-.146-.162-.261-.308-.312-1.549-.545-2.727-1.939-3.001-3.549-.013-.075.026-.13.052-.156.02-.021.072-.068.151-.068.008,0,.015,0,.022.001,2.767.303,3.771,2.174,3.811,2.251.085.166.256.271.441.272.002,0,.004,0,.006,0,.185,0,.354-.103.441-.266.042-.078,1.053-1.916,3.859-2.216.088-.011.153.044.175.067.024.025.062.078.05.15-.306,1.811-1.818,3.326-3.678,3.685-.185.036-.334.172-.386.353l-.519,1.818c-.304,1.798-.422,3.168-.422,4.884,0,.01,0,.02,0,.03-1.132.832-1.867,1.482-1.952,1.558-.206.184-.224.5-.04.706s.499.223.706.04c.06-.053,6.033-5.334,10.782-5.334h1.008c4.131.004,7.492,3.368,7.492,7.499v1.988Zm-6-.487c0,.552-.448,1-1,1s-1-.448-1-1,.448-1,1-1,1,.448,1,1Z"/>
</svg>
